<?xml version="1.0" encoding="UTF-8"?>
<svg id="Capa_2" data-name="Capa 2" xmlns="http://www.w3.org/2000/svg" viewBox="0 0 86.52 84.53">
  <defs>
    <style>
      .cls-1 {
        fill: #248dc1;
      }

      .cls-2 {
        fill: #4298cc;
      }

      .cls-3 {
        fill: #4ac0e0;
      }

      .cls-4 {
        fill: #0071b9;
      }
    </style>
  </defs>
  <g id="_02" data-name="02">
    <g>
      <g>
        <polygon class="cls-3" points="41.82 19.04 43.26 19.86 43.26 0 26.06 9.93 27.49 10.76 41.82 2.48 41.82 19.04"/>
        <polygon class="cls-3" points="63.33 11.59 46.13 1.66 46.13 3.31 61.89 12.42 63.33 11.59"/>
        <polygon class="cls-3" points="57.59 18.21 48.99 23.17 50.43 24 57.59 19.86 57.59 18.21"/>
        <polygon class="cls-3" points="28.92 33.11 28.92 34.76 37.52 29.79 36.09 28.97 28.92 33.11"/>
        <polygon class="cls-3" points="44.69 50.49 44.69 33.93 43.26 33.11 43.26 52.97 60.46 43.04 59.03 42.21 44.69 50.49"/>
        <polygon class="cls-3" points="24.62 40.55 23.19 41.38 40.39 51.31 40.39 49.66 24.62 40.55"/>
        <polygon class="cls-4" points="20.32 39.73 26.06 36.42 26.06 19.86 20.32 16.55 20.32 39.73"/>
        <polygon class="cls-1" points="20.32 9.93 20.32 16.55 60.46 39.73 60.46 33.11 20.32 9.93"/>
        <polygon class="cls-2" points="66.19 43.04 60.46 39.73 60.46 16.55 66.19 13.24 66.19 43.04"/>
      </g>
      <g>
        <path class="cls-4" d="M9.49,65.55c-1.87,0-3.61.54-5.08,1.47v-.81H0v17.66h4.41v-8.83c0-1.36.53-2.63,1.49-3.59.96-.96,2.23-1.49,3.59-1.49s2.63.53,3.59,1.49c.96.96,1.49,2.23,1.49,3.59v8.83h4.41v-8.83c0-5.24-4.25-9.49-9.49-9.49"/>
        <path class="cls-1" d="M32.88,69.96c1.36,0,2.63.53,3.59,1.49.96.96,1.49,2.23,1.49,3.59s-.53,2.63-1.49,3.59c-.96.96-2.23,1.49-3.59,1.49s-2.63-.53-3.59-1.49c-.96-.96-1.49-2.23-1.49-3.59s.53-2.63,1.49-3.59c.96-.96,2.23-1.49,3.59-1.49M32.88,65.55c-5.24,0-9.49,4.25-9.49,9.49s4.25,9.49,9.49,9.49,9.49-4.25,9.49-9.49-4.25-9.49-9.49-9.49"/>
        <polygon class="cls-2" points="60.98 66.21 54.96 77.44 48.93 66.21 43.92 66.21 53.4 83.87 56.52 83.87 65.99 66.21 60.98 66.21"/>
        <path class="cls-3" d="M82.1,66.21v.81c-1.47-.93-3.21-1.47-5.08-1.47-5.24,0-9.49,4.25-9.49,9.49s4.25,9.49,9.49,9.49c1.87,0,3.61-.54,5.08-1.47v.81h4.41v-17.66h-4.41ZM80.62,78.63c-.96.96-2.23,1.49-3.59,1.49s-2.63-.53-3.59-1.49c-.96-.96-1.49-2.23-1.49-3.59s.53-2.63,1.49-3.59,2.23-1.49,3.59-1.49,2.63.53,3.59,1.49c.96.96,1.49,2.23,1.49,3.59s-.53,2.63-1.49,3.59"/>
      </g>
    </g>
  </g>
</svg>